<?xml version="1.0" encoding="UTF-8" standalone="no"?>
<!-- Generator: Adobe Illustrator 16.0.0, SVG Export Plug-In . SVG Version: 6.00 Build 0)  -->

<svg
   xmlns:dc="http://purl.org/dc/elements/1.1/"
   xmlns:cc="http://creativecommons.org/ns#"
   xmlns:rdf="http://www.w3.org/1999/02/22-rdf-syntax-ns#"
   xmlns:svg="http://www.w3.org/2000/svg"
   xmlns="http://www.w3.org/2000/svg"
   xmlns:sodipodi="http://sodipodi.sourceforge.net/DTD/sodipodi-0.dtd"
   xmlns:inkscape="http://www.inkscape.org/namespaces/inkscape"
   version="1.1"
   id="Capa_1"
   x="0px"
   y="0px"
   width="451.847px"
   height="451.847px"
   viewBox="0 0 451.847 451.847"
   style="enable-background:new 0 0 451.847 451.847;"
   xml:space="preserve"
   inkscape:version="0.48.4 r9939"
   sodipodi:docname="expand.svg"><metadata
     id="metadata41"><rdf:RDF><cc:Work
         rdf:about=""><dc:format>image/svg+xml</dc:format><dc:type
           rdf:resource="http://purl.org/dc/dcmitype/StillImage" /></cc:Work></rdf:RDF></metadata><defs
     id="defs39" /><sodipodi:namedview
     pagecolor="#ffffff"
     bordercolor="#666666"
     borderopacity="1"
     objecttolerance="10"
     gridtolerance="10"
     guidetolerance="10"
     inkscape:pageopacity="0"
     inkscape:pageshadow="2"
     inkscape:window-width="1871"
     inkscape:window-height="1056"
     id="namedview37"
     showgrid="false"
     inkscape:zoom="0.52230071"
     inkscape:cx="225.92349"
     inkscape:cy="225.92349"
     inkscape:window-x="49"
     inkscape:window-y="24"
     inkscape:window-maximized="1"
     inkscape:current-layer="Capa_1" /><g
     id="g3"
     style="fill:#ffffff"><path
       d="M225.923,354.706c-8.098,0-16.195-3.092-22.369-9.263L9.27,151.157c-12.359-12.359-12.359-32.397,0-44.751   c12.354-12.354,32.388-12.354,44.748,0l171.905,171.915l171.906-171.909c12.359-12.354,32.391-12.354,44.744,0   c12.365,12.354,12.365,32.392,0,44.751L248.292,345.449C242.115,351.621,234.018,354.706,225.923,354.706z"
       id="path5"
       style="fill:#ffffff" /></g><g
     id="g7" /><g
     id="g9" /><g
     id="g11" /><g
     id="g13" /><g
     id="g15" /><g
     id="g17" /><g
     id="g19" /><g
     id="g21" /><g
     id="g23" /><g
     id="g25" /><g
     id="g27" /><g
     id="g29" /><g
     id="g31" /><g
     id="g33" /><g
     id="g35" /><path
     style="fill:#ffffff;fill-opacity:0;fill-rule:nonzero;stroke:#000000;stroke-width:1.91460585999999999;stroke-miterlimit:0;stroke-opacity:1;stroke-dasharray:none"
     d="M 214.43586,350.80129 C 207.02547,347.62974 9.3531882,151.65464 4.6624428,142.82895 -2.4164108,129.51 3.3284554,110.29846 16.730727,102.47111 c 7.026229,-4.103539 20.84542,-4.773991 27.611606,-1.33961 2.464063,1.25072 44.327851,42.02835 93.030637,90.61696 l 88.55052,88.34294 88.55052,-88.34294 c 48.70279,-48.58861 90.56659,-89.36624 93.03065,-90.61696 6.76617,-3.434381 20.58538,-2.763929 27.6116,1.33961 13.40228,7.82735 19.14713,27.03889 12.06828,40.35784 -1.51132,2.84354 -47.82085,50.15713 -102.91007,105.14129 -69.14775,69.01589 -102.36634,100.88119 -107.2805,102.91006 -8.79284,3.63023 -13.93346,3.61223 -22.55811,-0.0791 l 0,6e-5 z"
     id="path3018"
     inkscape:connector-curvature="0" /><path
     style="fill:#ffffff;fill-opacity:0;fill-rule:nonzero;stroke:#000000;stroke-width:1.91460586;stroke-miterlimit:0;stroke-opacity:1;stroke-dasharray:none"
     d="M 213.47855,350.67745 C 206.3818,346.98513 8.4671886,149.98762 4.6624428,142.82895 -2.4164108,129.51 3.3284554,110.29846 16.730727,102.47111 c 7.026229,-4.103539 20.84542,-4.773991 27.611606,-1.33961 2.464063,1.25072 44.327851,42.02835 93.030637,90.61696 l 88.55052,88.34294 88.55052,-88.34294 c 48.70279,-48.58861 90.56659,-89.36624 93.03065,-90.61696 6.76617,-3.434381 20.58538,-2.763929 27.6116,1.33961 13.40228,7.82735 19.14713,27.03889 12.06828,40.35784 -4.02655,7.576 -201.98256,204.33443 -209.19968,207.93408 -7.67267,3.82688 -17.04938,3.79412 -24.50631,-0.0856 l 0,0 z"
     id="path3020"
     inkscape:connector-curvature="0" /><path
     style="fill:#ffffff;fill-opacity:0;fill-rule:nonzero;stroke:#000000;stroke-width:1.91460586;stroke-miterlimit:0;stroke-opacity:1;stroke-dasharray:none"
     d="M 213.47855,350.85038 C 206.24906,347.14339 8.446872,149.95237 4.5028924,142.52041 -1.2364867,131.70524 1.7881469,114.48634 10.812968,106.59786 c 8.971436,-7.841814 24.016893,-10.294703 33.529365,-5.46636 2.464063,1.25072 44.327851,42.02835 93.030637,90.61696 l 88.55052,88.34294 88.55052,-88.34294 c 48.70279,-48.58861 90.56659,-89.36624 93.03065,-90.61696 9.51247,-4.828343 24.55792,-2.375454 33.52936,5.46636 9.02128,7.88538 12.048,25.0975 6.31693,35.92255 -4.3334,8.18509 -204.28949,206.94462 -210.54311,209.28321 -7.62021,2.84962 -16.63085,2.48144 -23.32929,-0.95324 l 0,0 z"
     id="path3022"
     inkscape:connector-curvature="0" /><path
     style="fill:#ffffff;fill-opacity:0;fill-rule:nonzero;stroke:#000000;stroke-width:1.91460586;stroke-miterlimit:0;stroke-opacity:1;stroke-dasharray:none"
     d="M 213.47855,350.85038 C 206.24906,347.14339 8.446872,149.95237 4.5028924,142.52041 -4.1124938,126.28575 5.5874998,104.35205 23.531385,99.493043 40.668624,94.852468 37.016291,91.92475 134.60282,188.52813 c 49.28527,48.78874 90.37957,88.7068 91.32067,88.7068 0.94111,0 42.0354,-39.91806 91.32067,-88.7068 97.58654,-96.60338 93.9342,-93.675662 111.07144,-89.035087 17.94053,4.858097 27.63804,26.778307 19.03535,43.027367 -4.3334,8.18509 -204.28949,206.94462 -210.54311,209.28321 -7.62021,2.84962 -16.63085,2.48144 -23.32929,-0.95324 l 0,0 z"
     id="path3024"
     inkscape:connector-curvature="0" /><path
     style="fill:#ffffff;fill-opacity:0;fill-rule:nonzero;stroke:#000000;stroke-width:1.91460586;stroke-miterlimit:0;stroke-opacity:1;stroke-dasharray:none"
     d="M 212.46862,350.58461 C 205.69352,345.95534 103.00562,244.81763 48.663909,189.25272 -0.91983391,138.55288 -2.058898,136.90832 1.9911855,121.86746 6.271455,105.97175 22.193068,95.548423 37.833789,98.40255 c 7.698826,1.404885 17.642014,10.77156 135.916691,128.03614 l 52.17301,51.72743 52.17301,-51.72743 C 396.37118,109.17411 406.31436,99.807435 414.01321,98.40255 c 15.6407,-2.854127 31.56231,7.5692 35.84258,23.46491 4.06088,15.0809 2.98597,16.62305 -47.63143,68.33626 -61.53014,62.86221 -158.89161,158.54957 -164.20871,161.38518 -6.14696,3.27819 -20.08118,2.73042 -25.54703,-1.00429 l 0,0 z"
     id="path3026"
     inkscape:connector-curvature="0" /><path
     style="fill:#ffffff;fill-opacity:0;fill-rule:nonzero;stroke:#000000;stroke-width:1.91460586;stroke-miterlimit:0;stroke-opacity:1;stroke-dasharray:none"
     d="M 213.18721,351.35805 C 207.02157,347.87853 73.214551,216.31258 35.394641,176.54328 8.7475608,148.52269 2.2044288,140.57119 1.1444315,134.92092 c -4.354973,-23.214 21.1041065,-44.543235 41.5736665,-34.82979 3.774705,1.79121 45.632272,41.60976 94.977262,90.3506 l 88.22813,87.14794 88.22814,-87.14794 c 49.34499,-48.74084 91.20256,-88.55939 94.97726,-90.3506 20.47627,-9.716628 45.9286,11.61595 41.57128,34.84247 -1.06879,5.69713 -7.79083,13.78668 -36.17726,43.53696 -36.96662,38.74272 -167.14961,166.68157 -175.14454,172.12531 -5.52738,3.7636 -20.12027,4.18826 -26.19116,0.76218 l 0,0 z"
     id="path3028"
     inkscape:connector-curvature="0" /><path
     style="fill:#ffffff;fill-opacity:0;fill-rule:nonzero;stroke:#000000;stroke-width:1.91460585999999999;stroke-miterlimit:0;stroke-opacity:1;stroke-dasharray:none"
     d="M 211.0072,349.96345 C 207.5419,347.85067 159.96962,301.50509 105.29105,246.97323 34.319538,176.19218 4.9872201,145.69858 2.7709654,140.39433 -6.2526406,118.7978 14.229384,93.758355 37.367985,98.099182 c 8.530251,1.600285 15.06055,7.664838 114.999255,106.797358 39.04807,38.73308 72.14839,70.42378 73.55625,70.42378 1.40787,0 34.50819,-31.6907 73.55625,-70.42378 99.93871,-99.13252 106.46901,-105.197073 114.99925,-106.797358 23.12306,-4.337909 43.62081,20.698228 34.60755,42.269968 -2.20325,5.27312 -31.74728,35.97397 -102.62354,106.64182 -54.74126,54.58029 -102.31828,100.93723 -105.72668,103.0154 -8.17619,4.98517 -21.49561,4.95697 -29.72912,-0.063 l 0,7e-5 z"
     id="path3030"
     inkscape:connector-curvature="0" /></svg>