<svg xmlns="http://www.w3.org/2000/svg" width="361.228" height="361.228" viewBox="0 0 361.228 361.228"><path d="M12.348 132.04c-.012 0-.023-.002-.036-.004-4.478-.737-8.776 2.086-9.873 6.494-1.103 4.42 1.383 8.94 5.705 10.38l121.85 40.54-40.533 16.142c-2.944 1.173-4.746 4.165-4.404 7.314.34 3.15 2.74 5.688 5.87 6.203l26.57 4.372c.763.125 1.54.125 2.304-.002l100.975-16.795 97.254 15.842c37.177 5.542 42.322-7.73 43.013-11.93.537-3.257.166-8.44-4.64-14.627-4.876-6.28-13.27-12.348-25.653-18.553-4.135-2.072-6.104-3.632-8.188-5.284-7.334-5.807-12.79-9.106-47.81-14.87L83.207 125.735 50.492 57.958c-1.234-2.556-3.634-4.35-6.436-4.812l-12.517-2.06c-2.578-.425-5.21.328-7.17 2.052s-3.047 4.236-2.957 6.845l2.525 74.013-11.59-1.955zM342.707 277.05H16.604C7.434 277.05 0 284.485 0 293.655s7.434 16.604 16.604 16.604h326.103c9.17 0 16.605-7.436 16.605-16.604s-7.435-16.603-16.605-16.603z"/></svg>