<svg xmlns="http://www.w3.org/2000/svg" width="371.656" height="371.656" viewBox="0 0 371.656 371.656"><path d="M37.833 212.348l-.032.017c-4.026 2.093-5.775 6.93-4.014 11.114 1.766 4.198 6.465 6.33 10.787 4.89l121.85-40.54-22.784 37.207c-1.656 2.703-1.306 6.178.855 8.497 2.16 2.318 5.603 2.912 8.417 1.45l23.894-12.417c.686-.356 1.31-.823 1.844-1.383l70.785-73.94 87.358-45.583c33.085-17.834 29.252-31.544 27.29-35.32-1.52-2.928-4.922-6.854-12.48-8.93-7.664-2.106-18.02-1.938-31.652.514-4.55.818-7.062.75-9.722.676-9.35-.256-15.694.37-47.188 16.736L90.788 164.85l-66.8-34.667c-2.52-1.307-5.516-1.306-8.035.004l-11.256 5.85C2.38 137.24.725 139.42.187 141.975c-.538 2.556.098 5.218 1.732 7.253l46.363 57.75-10.45 5.37zM355.052 282.5H28.948c-9.17 0-16.604 7.437-16.604 16.605s7.434 16.604 16.604 16.604h326.104c9.17 0 16.604-7.435 16.604-16.605 0-9.17-7.434-16.604-16.604-16.604z"/></svg>