<svg xmlns="http://www.w3.org/2000/svg" width="451.847" height="451.847" viewBox="0 0 451.847 451.847"><path d="M225.923 354.706c-8.098 0-16.195-3.092-22.37-9.263L9.27 151.157c-12.36-12.36-12.36-32.397 0-44.75 12.354-12.355 32.388-12.355 44.748 0L225.923 278.32 397.83 106.413c12.358-12.354 32.39-12.354 44.743 0 12.365 12.354 12.365 32.392 0 44.75L248.293 345.45c-6.178 6.17-14.275 9.256-22.37 9.256z" fill="#fff"/><path d="M214.436 350.8c-7.41-3.17-205.083-199.145-209.774-207.97-7.078-13.32-1.334-32.532 12.07-40.36 7.025-4.102 20.844-4.773 27.61-1.34 2.464 1.252 44.328 42.03 93.03 90.618l88.55 88.343 88.552-88.342c48.703-48.588 90.567-89.366 93.03-90.616 6.767-3.435 20.586-2.764 27.612 1.34 13.403 7.826 19.147 27.038 12.07 40.357-1.513 2.842-47.822 50.156-102.912 105.14-69.147 69.016-102.366 100.88-107.28 102.91-8.793 3.63-13.933 3.613-22.558-.08z" fill="none" stroke="#000" stroke-width="1.915" stroke-miterlimit="0"/><path d="M213.48 350.677C206.38 346.985 8.466 149.987 4.66 142.83c-7.078-13.32-1.334-32.532 12.07-40.36 7.025-4.102 20.844-4.773 27.61-1.34 2.464 1.252 44.328 42.03 93.03 90.618l88.55 88.343 88.552-88.342c48.703-48.588 90.567-89.366 93.03-90.616 6.767-3.435 20.586-2.764 27.612 1.34 13.403 7.826 19.147 27.038 12.07 40.357-4.028 7.575-201.984 204.333-209.2 207.933-7.674 3.827-17.05 3.794-24.507-.086z" fill="none" stroke="#000" stroke-width="1.915" stroke-miterlimit="0"/><path d="M213.48 350.85C206.25 347.143 8.446 149.952 4.502 142.52c-5.74-10.815-2.715-28.034 6.31-35.922 8.97-7.842 24.017-10.295 33.53-5.467 2.463 1.252 44.327 42.03 93.03 90.618l88.55 88.343 88.55-88.342c48.704-48.588 90.568-89.366 93.032-90.616 9.512-4.83 24.558-2.376 33.53 5.466 9.02 7.885 12.047 25.097 6.316 35.922-4.332 8.186-204.29 206.945-210.542 209.284-7.62 2.85-16.63 2.48-23.33-.954z" fill="none" stroke="#000" stroke-width="1.915" stroke-miterlimit="0"/><path d="M213.48 350.85C206.25 347.143 8.446 149.952 4.502 142.52c-8.615-16.234 1.084-38.168 19.028-43.027 17.14-4.64 13.486-7.568 111.073 89.035 49.285 48.79 90.38 88.707 91.32 88.707.942 0 42.036-39.918 91.32-88.707 97.588-96.603 93.935-93.676 111.073-89.035 17.94 4.858 27.638 26.778 19.035 43.027-4.332 8.186-204.29 206.945-210.542 209.284-7.62 2.85-16.63 2.48-23.33-.954z" fill="none" stroke="#000" stroke-width="1.915" stroke-miterlimit="0"/><path d="M212.47 350.585c-6.776-4.63-109.464-105.767-163.806-161.332C-.92 138.553-2.06 136.908 1.99 121.867c4.28-15.895 20.203-26.32 35.844-23.464 7.7 1.404 17.642 10.77 135.916 128.036l52.173 51.726 52.173-51.727C396.37 109.173 406.314 99.806 414.014 98.402c15.64-2.855 31.563 7.57 35.843 23.464 4.06 15.08 2.986 16.624-47.632 68.337-61.53 62.862-158.89 158.55-164.208 161.385-6.147 3.277-20.082 2.73-25.547-1.005z" fill="none" stroke="#000" stroke-width="1.915" stroke-miterlimit="0"/><path d="M213.187 351.358c-6.165-3.48-139.972-135.045-177.792-174.815-26.647-28.02-33.19-35.972-34.25-41.622-4.356-23.213 21.104-44.542 41.573-34.83 3.775 1.792 45.632 41.61 94.977 90.352l88.228 87.148 88.23-87.148c49.344-48.74 91.2-88.56 94.976-90.35 20.475-9.717 45.927 11.615 41.57 34.842-1.07 5.697-7.79 13.786-36.177 43.537-36.967 38.743-167.15 166.682-175.145 172.126-5.527 3.763-20.12 4.188-26.19.762z" fill="none" stroke="#000" stroke-width="1.915" stroke-miterlimit="0"/><path d="M211.007 349.963c-3.465-2.112-51.037-48.458-105.716-102.99C34.32 176.193 4.988 145.7 2.77 140.393-6.252 118.8 14.23 93.76 37.37 98.1c8.53 1.6 15.06 7.664 115 106.797 39.047 38.733 72.148 70.423 73.555 70.423 1.408 0 34.51-31.69 73.557-70.423C399.418 105.764 405.95 99.7 414.48 98.1c23.122-4.34 43.62 20.697 34.607 42.27-2.204 5.272-31.748 35.973-102.624 106.64-54.74 54.58-102.318 100.938-105.727 103.016-8.176 4.986-21.495 4.957-29.73-.063z" fill="none" stroke="#000" stroke-width="1.915" stroke-miterlimit="0"/></svg>